<svg xmlns="http://www.w3.org/2000/svg" viewBox="0 0 180 180">
  <path fill="#ffffff" d="M 89.402344 60.9375 L 51.628906 90.832031 C 51.554688 90.890625 51.472656 90.898438 51.386719 90.859375 C 51.300781 90.816406 51.257812 90.75 51.257812 90.652344 L 51.257812 80.574219 C 51.257812 80.53125 51.273438 80.496094 51.308594 80.46875 L 89.214844 50.472656 C 89.371094 50.347656 89.527344 50.347656 89.683594 50.472656 L 127.472656 80.191406 C 127.617188 80.300781 127.6875 80.449219 127.6875 80.632812 C 127.683594 83.191406 127.679688 85.371094 127.675781 87.164062 C 127.671875 88.195312 127.402344 89.132812 126.863281 89.980469 C 126.835938 90.023438 126.804688 90.027344 126.765625 89.996094 L 89.578125 60.9375 C 89.519531 60.894531 89.460938 60.894531 89.402344 60.9375 Z M 89.402344 60.9375"/>
  <path fill="#ffffff" d="M 98.570312 108.28125 C 98.535156 108.308594 98.496094 108.316406 98.457031 108.304688 C 98.414062 108.296875 98.382812 108.269531 98.367188 108.230469 C 98.210938 107.894531 98.074219 107.636719 97.945312 107.457031 C 97.484375 106.8125 96.660156 105.597656 95.476562 103.8125 C 95.410156 103.714844 95.363281 103.605469 95.339844 103.492188 C 95.113281 102.484375 95.089844 100.898438 95.777344 99.960938 C 96.183594 99.414062 96.527344 99.035156 96.808594 98.828125 C 98.699219 97.429688 99.722656 96.699219 101.238281 95.273438 C 103.195312 93.425781 104.816406 91.585938 106.078125 89.179688 C 106.324219 88.707031 106.523438 88.21875 106.679688 87.722656 C 106.945312 86.863281 107.097656 86.359375 107.140625 86.214844 C 107.210938 85.972656 107.222656 85.390625 107.171875 84.476562 C 107.164062 84.328125 107.132812 84.1875 107.074219 84.054688 C 107.039062 83.976562 106.902344 83.566406 106.660156 82.832031 C 106.324219 81.796875 105.675781 80.882812 104.945312 80.128906 C 104.363281 79.527344 103.667969 79.144531 102.859375 78.988281 C 102.210938 78.859375 101.527344 79.21875 100.824219 79.503906 C 100.65625 79.574219 100.511719 79.539062 100.394531 79.398438 C 99.5 78.332031 98.660156 77.277344 97.878906 76.234375 C 97.707031 76.003906 97.253906 75.785156 96.949219 75.59375 C 96.5 75.316406 96.042969 75.273438 95.578125 75.460938 C 95.191406 75.613281 94.773438 75.871094 94.316406 76.230469 C 92.085938 78.003906 87.917969 81.367188 81.816406 86.316406 C 77.023438 90.199219 72.175781 94.125 67.261719 98.09375 C 66.296875 98.875 65.765625 99.402344 65.671875 99.679688 C 65.5 100.179688 65.464844 100.695312 65.566406 101.222656 C 65.617188 101.496094 65.878906 101.925781 66.351562 102.515625 C 67.386719 103.808594 68.546875 105.351562 69.832031 107.140625 C 70.109375 107.527344 70.570312 108.160156 70.949219 108.386719 C 72.019531 109.03125 73.171875 108.644531 74.0625 107.898438 C 75.03125 107.078125 76.136719 106.175781 77.375 105.183594 C 81.90625 101.5625 86.335938 97.996094 90.660156 94.484375 C 91.109375 94.117188 91.675781 93.667969 92.363281 93.132812 C 92.972656 92.660156 93.542969 92.207031 94.070312 91.777344 C 97.011719 89.375 99.71875 87.160156 102.1875 85.128906 C 103.011719 84.453125 103.234375 83.625 102.867188 82.644531 C 102.839844 82.574219 102.800781 82.507812 102.753906 82.445312 L 101.378906 80.707031 C 101.320312 80.636719 101.308594 80.558594 101.339844 80.476562 C 101.375 80.390625 101.433594 80.339844 101.523438 80.324219 C 102.199219 80.199219 103.148438 80.074219 103.683594 80.523438 C 104.355469 81.085938 104.785156 81.71875 105.234375 82.503906 C 105.542969 83.042969 105.734375 83.527344 105.800781 83.953125 C 106.019531 85.292969 105.933594 86.476562 105.535156 87.496094 C 104.632812 89.828125 102.878906 92.460938 100.738281 94.238281 C 100.417969 94.503906 99.980469 94.898438 99.425781 95.417969 C 98.488281 96.304688 97.097656 97.1875 96.195312 97.902344 C 95.578125 98.390625 95.113281 98.882812 94.796875 99.382812 C 94.582031 99.726562 94.335938 100.347656 94.070312 101.246094 C 93.738281 102.363281 94.070312 103.597656 94.660156 104.59375 C 95.207031 105.515625 96.132812 106.882812 97.441406 108.699219 C 97.574219 108.875 97.519531 109.0625 97.28125 109.257812 C 96.636719 109.785156 96.101562 110.234375 95.675781 110.609375 C 95.636719 110.640625 95.632812 110.679688 95.664062 110.71875 L 97.394531 112.90625 C 97.445312 112.96875 97.4375 113.019531 97.367188 113.058594 C 95.289062 114.207031 93.183594 115.226562 91.058594 116.121094 C 90.5 116.359375 90.140625 116.578125 89.652344 116.71875 C 89.007812 116.90625 88.492188 117.261719 87.855469 117.40625 C 87.359375 117.519531 86.929688 117.667969 86.570312 117.847656 C 86.070312 118.097656 85.695312 118.121094 85.164062 118.265625 C 85.070312 118.292969 84.976562 118.324219 84.886719 118.367188 C 84.425781 118.585938 83.9375 118.75 83.433594 118.859375 C 82.511719 119.058594 81.851562 119.457031 80.953125 119.527344 C 80.480469 119.566406 79.875 119.707031 79.144531 119.949219 C 78.242188 120.246094 76.9375 120.238281 76.136719 120.429688 C 73.992188 120.9375 72.316406 120.972656 69.75 120.960938 C 68.121094 120.949219 67.089844 120.984375 65.714844 120.613281 C 64.828125 120.371094 64.1875 120.222656 63.800781 120.164062 C 63.761719 120.15625 63.722656 120.148438 63.6875 120.132812 L 61.980469 119.367188 C 61.949219 119.355469 61.917969 119.339844 61.890625 119.316406 L 61.011719 118.6875 C 60.980469 118.664062 60.953125 118.636719 60.933594 118.605469 C 60.636719 118.183594 60.488281 117.738281 60.488281 117.269531 C 60.480469 104.371094 60.484375 94.0625 60.496094 86.347656 C 60.496094 86.222656 60.542969 86.121094 60.640625 86.042969 L 89.269531 63.386719 C 89.328125 63.339844 89.386719 63.339844 89.445312 63.386719 C 92.902344 66.054688 94.632812 67.390625 94.640625 67.394531 C 96.34375 68.714844 97.78125 69.84375 98.953125 70.78125 C 99.007812 70.824219 99.269531 71.027344 99.746094 71.390625 C 102.839844 73.761719 108.664062 78.289062 117.214844 84.96875 C 117.679688 85.328125 118.375 85.882812 118.476562 86.535156 C 118.511719 86.75 118.523438 88.085938 118.515625 90.546875 C 118.511719 91.460938 118.152344 91.785156 117.484375 92.515625 C 116.910156 93.148438 116.355469 93.703125 115.828125 94.183594 C 111.71875 97.929688 107.910156 101.351562 104.40625 104.449219 C 104.183594 104.644531 103.945312 104.828125 103.695312 105.003906 C 103.617188 105.058594 103.605469 105.125 103.667969 105.199219 L 105.390625 107.375 C 105.441406 107.4375 105.433594 107.496094 105.367188 107.542969 L 102.378906 109.714844 C 102.238281 109.816406 102.101562 109.808594 101.976562 109.6875 C 101.214844 108.945312 100.558594 108.195312 100.011719 107.429688 C 99.972656 107.378906 99.925781 107.351562 99.863281 107.34375 C 99.804688 107.332031 99.75 107.347656 99.699219 107.386719 Z M 98.570312 108.28125"/>
  <path fill="#ffffff" d="M 120.332031 91.660156 C 120.476562 91.84375 120.5625 91.992188 120.746094 92.09375 C 121.191406 92.332031 121.691406 92.570312 122.253906 92.808594 C 122.378906 92.863281 122.515625 92.894531 122.652344 92.902344 C 123.765625 92.960938 124.519531 92.953125 124.910156 92.871094 C 125.355469 92.785156 125.945312 92.5 126.679688 92.027344 C 127.089844 91.765625 127.613281 91.269531 128.253906 90.542969 C 131.445312 86.929688 134.503906 83.445312 137.433594 80.097656 C 138.125 79.304688 138.617188 78.8125 138.910156 78.613281 C 139.414062 78.265625 140.054688 77.992188 140.828125 77.785156 C 141.359375 77.640625 141.988281 77.679688 142.710938 77.898438 C 143.382812 78.101562 143.914062 78.4375 144.296875 78.902344 C 144.972656 79.722656 145.265625 80.722656 145.167969 81.90625 C 145.128906 82.410156 145.03125 82.804688 144.875 83.085938 C 144.410156 83.949219 143.910156 84.644531 143.378906 85.171875 C 143.171875 85.378906 142.515625 85.929688 141.402344 86.832031 C 138.253906 89.382812 135.269531 91.78125 132.453125 94.023438 C 131.71875 94.609375 130.992188 95.386719 130.523438 95.871094 C 130.449219 95.945312 130.226562 96.265625 129.859375 96.824219 C 129.824219 96.882812 129.796875 96.945312 129.777344 97.011719 L 129.28125 98.960938 C 129.269531 99.019531 129.269531 99.082031 129.28125 99.144531 L 129.730469 101.359375 C 129.757812 101.511719 129.820312 101.648438 129.910156 101.773438 C 130.234375 102.222656 130.449219 102.652344 130.558594 103.066406 C 130.578125 103.128906 130.578125 103.191406 130.5625 103.25 C 130.484375 103.554688 130.40625 103.742188 130.316406 103.820312 C 129.679688 104.402344 129.136719 104.949219 128.6875 105.457031 C 128.636719 105.511719 128.585938 105.515625 128.535156 105.460938 L 117.8125 94.125 C 117.710938 94.015625 117.714844 93.910156 117.828125 93.808594 L 120.238281 91.648438 C 120.273438 91.621094 120.304688 91.625 120.332031 91.660156 Z M 142.535156 80.472656 C 142.375 80.308594 142.179688 80.191406 141.949219 80.121094 C 141.71875 80.050781 141.472656 80.03125 141.210938 80.066406 C 140.945312 80.097656 140.683594 80.179688 140.425781 80.3125 C 140.167969 80.445312 139.929688 80.613281 139.71875 80.824219 C 139.503906 81.035156 139.332031 81.265625 139.195312 81.523438 C 139.058594 81.777344 138.972656 82.039062 138.933594 82.300781 C 138.898438 82.566406 138.910156 82.8125 138.976562 83.042969 C 139.042969 83.273438 139.15625 83.46875 139.316406 83.632812 C 139.476562 83.796875 139.671875 83.914062 139.902344 83.984375 C 140.132812 84.054688 140.378906 84.070312 140.640625 84.039062 C 140.90625 84.007812 141.167969 83.925781 141.425781 83.792969 C 141.683594 83.660156 141.917969 83.492188 142.132812 83.28125 C 142.347656 83.070312 142.519531 82.839844 142.65625 82.582031 C 142.792969 82.328125 142.878906 82.066406 142.917969 81.804688 C 142.953125 81.539062 142.941406 81.292969 142.875 81.0625 C 142.808594 80.832031 142.695312 80.632812 142.535156 80.472656 Z M 142.535156 80.472656"/>
  <path fill="#ffffff" d="M 113.089844 98.511719 L 116.976562 94.832031 C 117.027344 94.785156 117.085938 94.761719 117.152344 94.765625 C 117.21875 94.769531 117.277344 94.796875 117.320312 94.84375 L 127.539062 106.269531 C 127.636719 106.382812 127.636719 106.492188 127.527344 106.597656 L 124.046875 110.082031 C 124 110.128906 123.941406 110.152344 123.875 110.152344 C 123.808594 110.152344 123.75 110.128906 123.703125 110.078125 L 113.078125 98.847656 C 112.96875 98.730469 112.972656 98.617188 113.089844 98.511719 Z M 113.089844 98.511719"/>
  <path fill="#ffffff" d="M 116.683594 109.253906 C 116.707031 109.230469 116.707031 109.203125 116.683594 109.179688 C 116.65625 109.15625 116.632812 109.15625 116.605469 109.179688 C 116.066406 109.65625 115.621094 110.121094 114.957031 110.636719 C 113.949219 111.417969 113.167969 112.0625 112.613281 112.566406 C 112.492188 112.683594 112.355469 112.769531 112.210938 112.828125 C 112.105469 112.867188 112.019531 112.84375 111.957031 112.75 C 111.5625 112.191406 111.015625 111.722656 110.640625 111.230469 C 110.609375 111.191406 110.144531 110.644531 109.246094 109.589844 C 109.125 109.445312 109.007812 109.402344 108.894531 109.289062 C 108.847656 109.242188 108.832031 109.1875 108.855469 109.125 L 109.109375 108.378906 C 109.125 108.335938 109.113281 108.296875 109.078125 108.265625 C 109.042969 108.230469 109.003906 108.226562 108.960938 108.246094 L 108.390625 108.488281 C 108.261719 108.546875 108.148438 108.523438 108.050781 108.414062 L 105.644531 105.722656 C 105.546875 105.609375 105.550781 105.503906 105.65625 105.398438 L 111.980469 99.417969 C 112.058594 99.34375 112.136719 99.347656 112.207031 99.425781 L 123.191406 111.035156 C 123.222656 111.070312 123.222656 111.105469 123.191406 111.140625 L 117.089844 117.835938 C 116.996094 117.941406 116.898438 117.941406 116.800781 117.839844 L 113.046875 113.871094 C 112.984375 113.804688 112.980469 113.734375 113.039062 113.664062 Z M 116.683594 109.253906"/>
  <path fill="#ffffff" d="M 57.214844 105.207031 C 57.238281 105.207031 57.261719 105.21875 57.273438 105.242188 C 57.285156 105.265625 57.285156 105.289062 57.273438 105.3125 L 56.777344 106.128906 C 56.71875 106.226562 56.664062 106.335938 56.625 106.445312 L 55.25 110.21875 C 55.234375 110.261719 55.222656 110.308594 55.21875 110.355469 C 55.121094 111.128906 55.105469 111.722656 54.964844 112.382812 C 54.773438 113.277344 54.777344 114.480469 54.988281 115.457031 C 55.085938 115.902344 55.15625 116.347656 55.207031 116.792969 C 55.222656 116.941406 55.261719 117.082031 55.320312 117.21875 C 55.773438 118.214844 56.027344 118.765625 56.089844 118.867188 C 57.046875 120.535156 58.394531 121.738281 60.132812 122.476562 C 60.734375 122.730469 61.121094 122.898438 61.300781 122.976562 C 61.429688 123.035156 61.5625 123.078125 61.703125 123.101562 C 62.570312 123.265625 63.328125 123.429688 63.972656 123.597656 C 64.589844 123.757812 65.179688 123.84375 65.738281 123.859375 C 67.890625 123.914062 69.914062 123.910156 71.804688 123.847656 C 73.53125 123.789062 75.535156 123.175781 77.042969 123.113281 C 77.070312 123.109375 77.101562 123.105469 77.128906 123.097656 L 83.015625 121.578125 C 83.019531 121.578125 83.019531 121.578125 83.019531 121.578125 C 83.550781 121.359375 84.105469 121.175781 84.683594 121.023438 C 85.371094 120.84375 85.894531 120.597656 86.4375 120.425781 C 87.125 120.207031 87.542969 120.0625 87.679688 119.988281 C 88.191406 119.710938 88.738281 119.578125 89.316406 119.335938 C 93.359375 117.640625 97.269531 115.621094 101.046875 113.273438 C 101.722656 112.855469 102.394531 112.4375 103.066406 112.019531 C 104.316406 111.242188 105.570312 110.371094 106.832031 109.40625 C 106.972656 109.300781 107.105469 109.308594 107.230469 109.429688 C 107.804688 109.988281 107.980469 110.1875 108.628906 110.679688 C 108.949219 110.921875 109.285156 111.273438 109.644531 111.738281 C 109.683594 111.792969 109.683594 111.84375 109.644531 111.894531 C 109.441406 112.140625 109.269531 112.328125 109.125 112.449219 C 101.492188 118.800781 93.074219 123.726562 83.875 127.230469 C 83.296875 127.449219 83 127.5625 82.976562 127.574219 C 82.679688 127.722656 82.242188 127.871094 81.667969 128.027344 C 80.972656 128.214844 80.417969 128.523438 79.746094 128.65625 C 79.035156 128.792969 78.484375 128.941406 78.097656 129.09375 C 77.6875 129.25 77.230469 129.363281 76.722656 129.425781 C 76.113281 129.5 75.453125 129.660156 74.742188 129.910156 C 74.527344 129.984375 74.304688 130.035156 74.078125 130.058594 C 72.550781 130.222656 70.8125 130.632812 69.03125 130.640625 C 65.488281 130.65625 63.359375 130.652344 62.640625 130.628906 C 61.597656 130.597656 60.347656 130.289062 59.175781 130.148438 C 58.480469 130.0625 58.0625 129.996094 57.925781 129.949219 C 56.867188 129.597656 56.054688 129.457031 55.152344 129.101562 C 52.6875 128.132812 50.476562 126.738281 48.972656 124.859375 C 48.699219 124.515625 48.320312 123.84375 47.835938 122.84375 C 47.457031 122.066406 47.394531 121.285156 47.1875 120.183594 C 47.085938 119.640625 47.121094 118.941406 47.296875 118.078125 C 47.457031 117.285156 47.5 116.582031 47.773438 115.902344 C 48.53125 114.03125 49.449219 112.375 50.761719 110.886719 C 52.609375 108.800781 54.765625 106.726562 57.089844 105.242188 C 57.113281 105.226562 57.136719 105.21875 57.164062 105.214844 C 57.191406 105.207031 57.207031 105.207031 57.214844 105.207031 Z M 57.214844 105.207031"/>
</svg>
